# xmcd
#
# Track frame offsets: 
#        150
#        3110
#        18459
#        34584
#        51738
#        65968
#        81109
#        97321
#        111737
#        127579
#        143498
#        160221
#        177571
#        192518
#        205640
#        212015
#        226211
#
# Disc length: 3237 seconds
#
# Revision: 0
# Processed by: cddbd v1.5.2PL0 Copyright (c) Steve Scherf et al.
# Submitted via: ExactAudioCopy v1.0b1
#
DISCID=f20ca311
DTITLE=Fler - Flersguterjunge
DYEAR=2010
DGENRE=Hip-Hop
TTITLE0=Intro
TTITLE1=Neues Ich
TTITLE2=Los, Lauf!
TTITLE3=Alle Gefickt
TTITLE4=Blaulicht Bei Nacht (feat. Bushido)
TTITLE5=Flersguterjunge (feat. Bushido)
TTITLE6=Das Alles Ist Deutschland (feat. Bushido)
TTITLE7=Alles Ist Verg‰nglich
TTITLE8=Schwer Erziehbar 2010
TTITLE9=Halt Mich Fest (feat. Reason)
TTITLE10=Ich Spiel, Um Zu Gewinnen
TTITLE11=Kopfgefickt (feat. Silla)
TTITLE12=Russisch Roulette
TTITLE13=Gewaltbereit
TTITLE14=Labelboss Skit
TTITLE15=Bis Zum Hals In Der Scheiﬂe
TTITLE16=Wer H‰tte Das Gedacht?
EXTD=
EXTT0=
EXTT1=
EXTT2=
EXTT3=
EXTT4=
EXTT5=
EXTT6=
EXTT7=
EXTT8=
EXTT9=
EXTT10=
EXTT11=
EXTT12=
EXTT13=
EXTT14=
EXTT15=
EXTT16=
PLAYORDER=
